<mxfile host="app.diagrams.net" modified="2022-06-02T08:56:03.114Z" agent="5.0 (Windows NT 10.0; Win64; x64) AppleWebKit/537.36 (KHTML, like Gecko) Chrome/102.0.5005.63 Safari/537.36" etag="eqhm7Ilwiu4vmhOEd3tr" version="18.1.2" type="github">
  <diagram id="Izmj4GPz0lvRZYQUVih_" name="Page-1">
    <mxGraphModel dx="1422" dy="762" grid="1" gridSize="10" guides="1" tooltips="1" connect="1" arrows="1" fold="1" page="1" pageScale="1" pageWidth="850" pageHeight="1100" math="0" shadow="0">
      <root>
        <mxCell id="0" />
        <mxCell id="1" parent="0" />
        <mxCell id="cWEXN-bF3hbhIx2hcadV-2" value="&lt;font style=&quot;font-size: 11px;&quot;&gt;Start&lt;/font&gt;" style="text;html=1;align=center;verticalAlign=middle;resizable=0;points=[];autosize=1;strokeColor=none;fillColor=none;" vertex="1" parent="1">
          <mxGeometry x="38" y="158" width="40" height="20" as="geometry" />
        </mxCell>
        <mxCell id="cWEXN-bF3hbhIx2hcadV-6" style="edgeStyle=orthogonalEdgeStyle;rounded=0;orthogonalLoop=1;jettySize=auto;html=1;fontSize=24;fontColor=#330000;" edge="1" parent="1" source="cWEXN-bF3hbhIx2hcadV-3" target="cWEXN-bF3hbhIx2hcadV-5">
          <mxGeometry relative="1" as="geometry" />
        </mxCell>
        <mxCell id="cWEXN-bF3hbhIx2hcadV-3" value="" style="shape=image;html=1;verticalAlign=top;verticalLabelPosition=bottom;labelBackgroundColor=#ffffff;imageAspect=0;aspect=fixed;image=https://cdn4.iconfinder.com/data/icons/ios-web-user-interface-multi-circle-flat-vol-2/512/Arrow_film_movie_play_player_start_video-128.png;fontSize=11;" vertex="1" parent="1">
          <mxGeometry x="34" y="104" width="50" height="50" as="geometry" />
        </mxCell>
        <mxCell id="cWEXN-bF3hbhIx2hcadV-4" value="&lt;font color=&quot;#330000&quot; style=&quot;font-size: 24px;&quot;&gt;&lt;b style=&quot;&quot;&gt;Global Security Verification -&amp;nbsp; Audit&amp;nbsp;&lt;/b&gt;&lt;/font&gt;" style="text;html=1;align=center;verticalAlign=middle;resizable=0;points=[];autosize=1;strokeColor=none;fillColor=none;fontSize=11;" vertex="1" parent="1">
          <mxGeometry x="195" y="30" width="420" height="20" as="geometry" />
        </mxCell>
        <mxCell id="cWEXN-bF3hbhIx2hcadV-11" style="edgeStyle=orthogonalEdgeStyle;rounded=0;orthogonalLoop=1;jettySize=auto;html=1;exitX=1;exitY=0.5;exitDx=0;exitDy=0;fontSize=11;fontColor=#330000;" edge="1" parent="1" source="cWEXN-bF3hbhIx2hcadV-5">
          <mxGeometry relative="1" as="geometry">
            <mxPoint x="300" y="249" as="targetPoint" />
          </mxGeometry>
        </mxCell>
        <mxCell id="cWEXN-bF3hbhIx2hcadV-5" value="" style="shape=image;html=1;verticalAlign=top;verticalLabelPosition=bottom;labelBackgroundColor=#ffffff;imageAspect=0;aspect=fixed;image=https://cdn3.iconfinder.com/data/icons/flat-actions-icons-9/792/Close_Icon_Circle-128.png;fontSize=24;fontColor=#330000;" vertex="1" parent="1">
          <mxGeometry x="150" y="220" width="58" height="58" as="geometry" />
        </mxCell>
        <mxCell id="cWEXN-bF3hbhIx2hcadV-8" value="Close Application -&amp;nbsp;&lt;br&gt;&lt;b&gt;Chrome , Excel&lt;/b&gt;" style="text;html=1;align=center;verticalAlign=middle;resizable=0;points=[];autosize=1;strokeColor=default;fillColor=none;fontSize=11;fontColor=#330000;" vertex="1" parent="1">
          <mxGeometry x="120" y="278" width="110" height="30" as="geometry" />
        </mxCell>
        <mxCell id="cWEXN-bF3hbhIx2hcadV-17" style="edgeStyle=orthogonalEdgeStyle;rounded=0;orthogonalLoop=1;jettySize=auto;html=1;fontFamily=Helvetica;fontSize=11;fontColor=#330000;" edge="1" parent="1" source="cWEXN-bF3hbhIx2hcadV-9" target="cWEXN-bF3hbhIx2hcadV-15">
          <mxGeometry relative="1" as="geometry" />
        </mxCell>
        <mxCell id="cWEXN-bF3hbhIx2hcadV-9" value="" style="shape=image;html=1;verticalAlign=top;verticalLabelPosition=bottom;labelBackgroundColor=#ffffff;imageAspect=0;aspect=fixed;image=https://cdn0.iconfinder.com/data/icons/business-startup-10/50/8-128.png;fontSize=11;fontColor=#330000;strokeColor=default;" vertex="1" parent="1">
          <mxGeometry x="310" y="208" width="79" height="79" as="geometry" />
        </mxCell>
        <mxCell id="cWEXN-bF3hbhIx2hcadV-10" value="Read the Configuration &lt;br&gt;File" style="text;html=1;align=center;verticalAlign=middle;resizable=0;points=[];autosize=1;strokeColor=default;fillColor=none;fontSize=11;fontColor=#330000;" vertex="1" parent="1">
          <mxGeometry x="280" y="288" width="130" height="30" as="geometry" />
        </mxCell>
        <mxCell id="cWEXN-bF3hbhIx2hcadV-14" value="Initialize Application" style="text;html=1;align=center;verticalAlign=middle;resizable=0;points=[];autosize=1;strokeColor=none;fillColor=none;fontSize=11;fontFamily=Helvetica;fontColor=#330000;" vertex="1" parent="1">
          <mxGeometry x="602" y="288" width="110" height="20" as="geometry" />
        </mxCell>
        <mxCell id="cWEXN-bF3hbhIx2hcadV-19" style="edgeStyle=orthogonalEdgeStyle;rounded=0;orthogonalLoop=1;jettySize=auto;html=1;fontFamily=Helvetica;fontSize=11;fontColor=#330000;" edge="1" parent="1" source="cWEXN-bF3hbhIx2hcadV-15" target="cWEXN-bF3hbhIx2hcadV-18">
          <mxGeometry relative="1" as="geometry" />
        </mxCell>
        <mxCell id="cWEXN-bF3hbhIx2hcadV-15" value="" style="dashed=0;outlineConnect=0;html=1;align=center;labelPosition=center;verticalLabelPosition=bottom;verticalAlign=top;shape=mxgraph.weblogos.chrome;rounded=0;sketch=0;fontFamily=Helvetica;fontSize=11;fontColor=#330000;strokeColor=default;fillColor=none;gradientColor=none;" vertex="1" parent="1">
          <mxGeometry x="565" y="362" width="54" height="50" as="geometry" />
        </mxCell>
        <mxCell id="cWEXN-bF3hbhIx2hcadV-16" value="Open URL -&lt;br&gt;&amp;nbsp;https://ralphlaurenpp-ps.ngcxpress.com" style="text;html=1;align=center;verticalAlign=middle;resizable=0;points=[];autosize=1;strokeColor=none;fillColor=none;fontSize=11;fontFamily=Helvetica;fontColor=#330000;" vertex="1" parent="1">
          <mxGeometry x="612" y="370" width="210" height="30" as="geometry" />
        </mxCell>
        <mxCell id="cWEXN-bF3hbhIx2hcadV-22" style="edgeStyle=orthogonalEdgeStyle;rounded=0;orthogonalLoop=1;jettySize=auto;html=1;entryX=0.5;entryY=0;entryDx=0;entryDy=0;fontFamily=Helvetica;fontSize=11;fontColor=#330000;" edge="1" parent="1" source="cWEXN-bF3hbhIx2hcadV-18" target="cWEXN-bF3hbhIx2hcadV-21">
          <mxGeometry relative="1" as="geometry" />
        </mxCell>
        <mxCell id="cWEXN-bF3hbhIx2hcadV-18" value="" style="shape=image;html=1;verticalAlign=top;verticalLabelPosition=bottom;labelBackgroundColor=#ffffff;imageAspect=0;aspect=fixed;image=https://cdn4.iconfinder.com/data/icons/minicons-3/640/fullscreen_black-128.png;rounded=0;sketch=0;fontFamily=Helvetica;fontSize=11;fontColor=#330000;strokeColor=default;fillColor=none;gradientColor=none;" vertex="1" parent="1">
          <mxGeometry x="568" y="440" width="48" height="48" as="geometry" />
        </mxCell>
        <mxCell id="cWEXN-bF3hbhIx2hcadV-20" value="Maximize Browser" style="text;html=1;align=center;verticalAlign=middle;resizable=0;points=[];autosize=1;strokeColor=none;fillColor=none;fontSize=11;fontFamily=Helvetica;fontColor=#330000;" vertex="1" parent="1">
          <mxGeometry x="615" y="468" width="110" height="20" as="geometry" />
        </mxCell>
        <mxCell id="cWEXN-bF3hbhIx2hcadV-26" style="edgeStyle=orthogonalEdgeStyle;rounded=0;orthogonalLoop=1;jettySize=auto;html=1;entryX=0.5;entryY=0;entryDx=0;entryDy=0;entryPerimeter=0;fontFamily=Helvetica;fontSize=11;fontColor=#330000;" edge="1" parent="1" source="cWEXN-bF3hbhIx2hcadV-21" target="cWEXN-bF3hbhIx2hcadV-24">
          <mxGeometry relative="1" as="geometry" />
        </mxCell>
        <mxCell id="cWEXN-bF3hbhIx2hcadV-40" value="Yes" style="edgeLabel;html=1;align=center;verticalAlign=middle;resizable=0;points=[];fontSize=11;fontFamily=Helvetica;fontColor=#330000;" vertex="1" connectable="0" parent="cWEXN-bF3hbhIx2hcadV-26">
          <mxGeometry x="0.046" y="-1" relative="1" as="geometry">
            <mxPoint as="offset" />
          </mxGeometry>
        </mxCell>
        <mxCell id="cWEXN-bF3hbhIx2hcadV-45" style="edgeStyle=orthogonalEdgeStyle;rounded=0;orthogonalLoop=1;jettySize=auto;html=1;entryX=0.5;entryY=0;entryDx=0;entryDy=0;fontFamily=Helvetica;fontSize=11;fontColor=#330000;" edge="1" parent="1" source="cWEXN-bF3hbhIx2hcadV-21" target="cWEXN-bF3hbhIx2hcadV-41">
          <mxGeometry relative="1" as="geometry" />
        </mxCell>
        <mxCell id="cWEXN-bF3hbhIx2hcadV-51" value="No" style="edgeLabel;html=1;align=center;verticalAlign=middle;resizable=0;points=[];fontSize=11;fontFamily=Helvetica;fontColor=#330000;" vertex="1" connectable="0" parent="cWEXN-bF3hbhIx2hcadV-45">
          <mxGeometry x="-0.6776" y="1" relative="1" as="geometry">
            <mxPoint as="offset" />
          </mxGeometry>
        </mxCell>
        <mxCell id="cWEXN-bF3hbhIx2hcadV-21" value="" style="shape=image;html=1;verticalAlign=top;verticalLabelPosition=bottom;labelBackgroundColor=#ffffff;imageAspect=0;aspect=fixed;image=https://cdn1.iconfinder.com/data/icons/Futurosoft%20Icons%200.5.2/128x128/apps/Login-Manager.png;rounded=0;sketch=0;fontFamily=Helvetica;fontSize=11;fontColor=#330000;strokeColor=default;fillColor=none;gradientColor=none;" vertex="1" parent="1">
          <mxGeometry x="562" y="533" width="60" height="60" as="geometry" />
        </mxCell>
        <mxCell id="cWEXN-bF3hbhIx2hcadV-23" value="Login Page &lt;br&gt;Exists" style="text;html=1;align=center;verticalAlign=middle;resizable=0;points=[];autosize=1;strokeColor=none;fillColor=none;fontSize=11;fontFamily=Helvetica;fontColor=#330000;" vertex="1" parent="1">
          <mxGeometry x="552" y="593" width="70" height="30" as="geometry" />
        </mxCell>
        <mxCell id="cWEXN-bF3hbhIx2hcadV-28" style="edgeStyle=orthogonalEdgeStyle;rounded=0;orthogonalLoop=1;jettySize=auto;html=1;entryX=0.5;entryY=0;entryDx=0;entryDy=0;fontFamily=Helvetica;fontSize=11;fontColor=#330000;" edge="1" parent="1" source="cWEXN-bF3hbhIx2hcadV-24" target="cWEXN-bF3hbhIx2hcadV-25">
          <mxGeometry relative="1" as="geometry" />
        </mxCell>
        <mxCell id="cWEXN-bF3hbhIx2hcadV-24" value="" style="verticalLabelPosition=bottom;html=1;verticalAlign=top;align=center;strokeColor=none;fillColor=#00BEF2;shape=mxgraph.azure.user;rounded=0;sketch=0;fontFamily=Helvetica;fontSize=11;fontColor=#330000;" vertex="1" parent="1">
          <mxGeometry x="400" y="590" width="30" height="30" as="geometry" />
        </mxCell>
        <mxCell id="cWEXN-bF3hbhIx2hcadV-32" style="edgeStyle=orthogonalEdgeStyle;rounded=0;orthogonalLoop=1;jettySize=auto;html=1;entryX=0.5;entryY=0;entryDx=0;entryDy=0;fontFamily=Helvetica;fontSize=11;fontColor=#330000;" edge="1" parent="1" source="cWEXN-bF3hbhIx2hcadV-25" target="cWEXN-bF3hbhIx2hcadV-30">
          <mxGeometry relative="1" as="geometry" />
        </mxCell>
        <mxCell id="cWEXN-bF3hbhIx2hcadV-25" value="" style="shape=image;html=1;verticalAlign=top;verticalLabelPosition=bottom;labelBackgroundColor=#ffffff;imageAspect=0;aspect=fixed;image=https://cdn0.iconfinder.com/data/icons/phosphor-regular-vol-3/256/password-128.png;rounded=0;sketch=0;fontFamily=Helvetica;fontSize=11;fontColor=#330000;strokeColor=default;fillColor=none;gradientColor=none;" vertex="1" parent="1">
          <mxGeometry x="400" y="657" width="30" height="30" as="geometry" />
        </mxCell>
        <mxCell id="cWEXN-bF3hbhIx2hcadV-27" value="Enter&lt;br&gt;UserName" style="text;html=1;align=center;verticalAlign=middle;resizable=0;points=[];autosize=1;strokeColor=none;fillColor=none;fontSize=11;fontFamily=Helvetica;fontColor=#330000;" vertex="1" parent="1">
          <mxGeometry x="430" y="593" width="70" height="30" as="geometry" />
        </mxCell>
        <mxCell id="cWEXN-bF3hbhIx2hcadV-29" value="Enter &lt;br&gt;Password" style="text;html=1;align=center;verticalAlign=middle;resizable=0;points=[];autosize=1;strokeColor=none;fillColor=none;fontSize=11;fontFamily=Helvetica;fontColor=#330000;" vertex="1" parent="1">
          <mxGeometry x="430" y="650" width="60" height="30" as="geometry" />
        </mxCell>
        <mxCell id="cWEXN-bF3hbhIx2hcadV-39" style="edgeStyle=orthogonalEdgeStyle;rounded=0;orthogonalLoop=1;jettySize=auto;html=1;entryX=0.5;entryY=0;entryDx=0;entryDy=0;fontFamily=Helvetica;fontSize=11;fontColor=#330000;" edge="1" parent="1" source="cWEXN-bF3hbhIx2hcadV-30" target="cWEXN-bF3hbhIx2hcadV-36">
          <mxGeometry relative="1" as="geometry">
            <Array as="points">
              <mxPoint x="415" y="780" />
              <mxPoint x="599" y="780" />
            </Array>
          </mxGeometry>
        </mxCell>
        <mxCell id="cWEXN-bF3hbhIx2hcadV-30" value="" style="shape=image;html=1;verticalAlign=top;verticalLabelPosition=bottom;labelBackgroundColor=#ffffff;imageAspect=0;aspect=fixed;image=https://cdn3.iconfinder.com/data/icons/arrows-397/48/arrow_login-128.png;rounded=0;sketch=0;fontFamily=Helvetica;fontSize=11;fontColor=#330000;strokeColor=default;fillColor=none;gradientColor=none;" vertex="1" parent="1">
          <mxGeometry x="395.5" y="722" width="39" height="39" as="geometry" />
        </mxCell>
        <mxCell id="cWEXN-bF3hbhIx2hcadV-33" value="Click &lt;br&gt;Login" style="text;html=1;align=center;verticalAlign=middle;resizable=0;points=[];autosize=1;strokeColor=none;fillColor=none;fontSize=11;fontFamily=Helvetica;fontColor=#330000;" vertex="1" parent="1">
          <mxGeometry x="440" y="726.5" width="40" height="30" as="geometry" />
        </mxCell>
        <mxCell id="cWEXN-bF3hbhIx2hcadV-42" style="edgeStyle=orthogonalEdgeStyle;rounded=0;orthogonalLoop=1;jettySize=auto;html=1;fontFamily=Helvetica;fontSize=11;fontColor=#330000;" edge="1" parent="1" source="cWEXN-bF3hbhIx2hcadV-36">
          <mxGeometry relative="1" as="geometry">
            <mxPoint x="250" y="990" as="targetPoint" />
          </mxGeometry>
        </mxCell>
        <mxCell id="cWEXN-bF3hbhIx2hcadV-43" style="edgeStyle=orthogonalEdgeStyle;rounded=0;orthogonalLoop=1;jettySize=auto;html=1;entryX=0.5;entryY=0;entryDx=0;entryDy=0;fontFamily=Helvetica;fontSize=11;fontColor=#330000;" edge="1" parent="1" source="cWEXN-bF3hbhIx2hcadV-36" target="cWEXN-bF3hbhIx2hcadV-41">
          <mxGeometry relative="1" as="geometry" />
        </mxCell>
        <mxCell id="cWEXN-bF3hbhIx2hcadV-36" value="" style="shape=image;html=1;verticalAlign=top;verticalLabelPosition=bottom;labelBackgroundColor=#ffffff;imageAspect=0;aspect=fixed;image=https://cdn0.iconfinder.com/data/icons/basic-e-commerce-line/48/Package_box_success-128.png;rounded=0;sketch=0;fontFamily=Helvetica;fontSize=11;fontColor=#330000;strokeColor=default;fillColor=none;gradientColor=none;" vertex="1" parent="1">
          <mxGeometry x="562" y="810" width="74" height="74" as="geometry" />
        </mxCell>
        <mxCell id="cWEXN-bF3hbhIx2hcadV-38" value="Login &lt;br&gt;Success" style="text;html=1;align=center;verticalAlign=middle;resizable=0;points=[];autosize=1;strokeColor=none;fillColor=none;fontSize=11;fontFamily=Helvetica;fontColor=#330000;" vertex="1" parent="1">
          <mxGeometry x="569" y="880" width="60" height="30" as="geometry" />
        </mxCell>
        <mxCell id="cWEXN-bF3hbhIx2hcadV-41" value="" style="shape=image;html=1;verticalAlign=top;verticalLabelPosition=bottom;labelBackgroundColor=#ffffff;imageAspect=0;aspect=fixed;image=https://cdn4.iconfinder.com/data/icons/flat-business-3/512/Flat_business-9-128.png;rounded=0;sketch=0;fontFamily=Helvetica;fontSize=11;fontColor=#330000;strokeColor=default;fillColor=none;gradientColor=none;" vertex="1" parent="1">
          <mxGeometry x="680" y="940" width="110" height="110" as="geometry" />
        </mxCell>
        <mxCell id="cWEXN-bF3hbhIx2hcadV-46" style="edgeStyle=orthogonalEdgeStyle;rounded=0;orthogonalLoop=1;jettySize=auto;html=1;entryX=0.517;entryY=1.333;entryDx=0;entryDy=0;entryPerimeter=0;fontFamily=Helvetica;fontSize=11;fontColor=#330000;" edge="1" parent="1" source="cWEXN-bF3hbhIx2hcadV-44" target="cWEXN-bF3hbhIx2hcadV-38">
          <mxGeometry relative="1" as="geometry" />
        </mxCell>
        <mxCell id="cWEXN-bF3hbhIx2hcadV-48" value="Retry Success" style="edgeLabel;html=1;align=center;verticalAlign=middle;resizable=0;points=[];fontSize=11;fontFamily=Helvetica;fontColor=#330000;" vertex="1" connectable="0" parent="cWEXN-bF3hbhIx2hcadV-46">
          <mxGeometry x="-0.1613" y="-2" relative="1" as="geometry">
            <mxPoint as="offset" />
          </mxGeometry>
        </mxCell>
        <mxCell id="cWEXN-bF3hbhIx2hcadV-49" value="" style="rounded=0;whiteSpace=wrap;html=1;sketch=0;fontFamily=Helvetica;fontSize=11;fontColor=#330000;strokeColor=default;fillColor=none;gradientColor=none;direction=south;dashed=1;" vertex="1" parent="1">
          <mxGeometry x="370" y="340" width="471" height="740" as="geometry" />
        </mxCell>
        <mxCell id="cWEXN-bF3hbhIx2hcadV-44" value="Close the Browser&lt;br&gt;Retry 3 Times" style="text;html=1;align=center;verticalAlign=middle;resizable=0;points=[];autosize=1;strokeColor=none;fillColor=none;fontSize=11;fontFamily=Helvetica;fontColor=#330000;" vertex="1" parent="1">
          <mxGeometry x="680" y="980" width="110" height="30" as="geometry" />
        </mxCell>
      </root>
    </mxGraphModel>
  </diagram>
</mxfile>
